<svg aria-hidden="true" style="position: absolute; width: 0; height: 0; overflow: hidden;" version="1.1" xmlns="http://www.w3.org/2000/svg" xmlns:xlink="http://www.w3.org/1999/xlink">
<defs>
<symbol id="icon-clock" viewBox="0 0 32 32">
<path d="M30.723 9.772c-1.687-3.933-4.554-6.794-8.52-8.486-1.982-0.845-4.059-1.277-6.229-1.277s-4.231 0.428-6.211 1.277c-3.933 1.687-6.813 4.546-8.503 8.486-0.847 1.974-1.26 4.042-1.26 6.211s0.413 4.255 1.26 6.229c1.69 3.94 4.57 6.816 8.503 8.503 1.98 0.85 4.042 1.277 6.211 1.277s4.246-0.432 6.229-1.277c3.966-1.692 6.833-4.57 8.521-8.503 0.849-1.98 1.277-4.059 1.277-6.229s-0.427-4.23-1.277-6.211zM28.169 23.051c-1.256 2.154-2.977 3.863-5.144 5.126-2.154 1.256-4.514 1.889-7.051 1.889-1.907 0-3.727-0.367-5.459-1.12s-3.228-1.741-4.479-2.992c-1.251-1.251-2.247-2.761-2.992-4.497-0.742-1.729-1.102-3.569-1.102-5.476 0-2.537 0.623-4.885 1.872-7.033 1.253-2.156 2.974-3.867 5.126-5.126s4.496-1.89 7.033-1.89c2.537 0 4.897 0.634 7.051 1.89 2.167 1.263 3.884 2.974 5.144 5.126s1.889 4.496 1.889 7.033c0 2.537-0.626 4.901-1.889 7.069z"></path>
<path d="M16.989 15.842v-9.063c0-0.542-0.473-0.98-1.015-0.98-0.507 0-0.962 0.437-0.962 0.98v9.203c0 0.018 0.035 0.088 0.035 0.14-0.035 0.315 0.053 0.577 0.262 0.788l5.232 5.231c0.35 0.35 0.997 0.35 1.347 0 0.402-0.402 0.376-0.986 0-1.365l-4.899-4.934z"></path>
</symbol>
<symbol id="icon-instagram" viewBox="0 0 32 32">
<path d="M31.563 16.063c0 2.175-0.044 4.356 0.012 6.531 0.094 3.85-2.325 6.825-5.406 8.15-1.238 0.531-2.538 0.813-3.881 0.813-4.206 0.006-8.419 0.063-12.625-0.019-3.169-0.063-5.775-1.387-7.644-4-0.981-1.375-1.45-2.938-1.45-4.631 0-4.481 0-8.956 0-13.438 0-3.656 1.781-6.213 4.944-7.875 1.375-0.719 2.869-1.025 4.425-1.031 4.081 0 8.169-0.025 12.25 0.012 3.169 0.025 5.813 1.238 7.762 3.787 1.087 1.425 1.613 3.063 1.613 4.862 0 2.275 0 4.556 0 6.838zM2.875 16.063c0 2.294 0 4.581 0 6.875 0 1.025 0.237 1.988 0.769 2.856 1.394 2.281 3.5 3.394 6.112 3.438 4.194 0.063 8.394 0.025 12.594 0.012 1.031 0 2.031-0.212 2.962-0.656 2.538-1.212 3.956-3.144 3.944-6.044-0.025-4.438-0.006-8.875-0.006-13.313 0-1.256-0.356-2.406-1.1-3.419-1.438-1.944-3.425-2.9-5.8-2.925-4.188-0.050-8.375-0.019-12.563-0.013-0.894 0-1.756 0.181-2.594 0.494-2.3 0.856-4.438 3.025-4.338 6.219 0.075 2.162 0.019 4.319 0.019 6.475z"></path>
<path d="M16.1 22.688c-4.031 0-7.281-3.212-7.287-7.213-0.006-3.938 3.269-7.162 7.275-7.162 4.019-0.006 7.281 3.213 7.287 7.181 0 3.963-3.256 7.187-7.275 7.194zM16.1 20.375c2.744 0 4.969-2.194 4.962-4.894-0.006-2.675-2.231-4.863-4.962-4.863-2.744 0-4.981 2.181-4.981 4.875 0.006 2.7 2.238 4.887 4.981 4.881z"></path>
<path d="M24.219 6.125c0.844 0 1.531 0.719 1.531 1.6-0.006 0.881-0.7 1.594-1.544 1.588-0.831-0.006-1.512-0.719-1.512-1.581-0.006-0.881 0.681-1.606 1.525-1.606z"></path>
</symbol>
<symbol id="icon-mail" viewBox="0 0 32 32">
<path d="M28.8 5.44c1.575 0 2.854 1.264 2.88 2.832l0 0.048v17.28c0 1.575-1.264 2.854-2.832 2.88l-0.048 0h-25.6c-1.575 0-2.854-1.264-2.88-2.832l-0-0.048v-17.28c0-1.575 1.264-2.854 2.832-2.88l0.048-0h25.6zM2.24 9.925v15.675c0 0.523 0.419 0.949 0.94 0.96l0.020 0h25.6c0.523 0 0.949-0.419 0.96-0.94v-15.319l-11.765 7.525c-1.022 0.781-2.437 0.789-3.467 0.023l-0.031-0.023-12.257-7.901zM29.243 7.574l-26.001 0.007c-0.010 0.009-0.020 0.019-0.030 0.029l-0.014 0.016-0.013 0.016c-0.154 0.201-0.119 0.487 0.075 0.646l0.013 0.010 12.39 8.002c0.338 0.258 0.805 0.263 1.147 0.014l0.019-0.014 12.39-8.002c0.059-0.045 0.106-0.103 0.138-0.169l0.008-0.018 0.007-0.017c0.069-0.179 0.020-0.377-0.111-0.505l-0.013-0.012-0.005-0.005z"></path>
</symbol>
<symbol id="icon-telegram" viewBox="0 0 32 32">
<path d="M13.333 25.333v-6.667l10.667-8-1.333-1.333-12 8-5.333-1.333v-1.333l21.333-8q1.333-1.333 1.333 1.333l-4 17.333h-1.333l-5.333-4z"></path>
</symbol>
<symbol id="icon-viber" viewBox="0 0 32 32">
<path d="M15.198 0.005c-2.568 0.031-8.089 0.453-11.177 3.286-2.297 2.276-3.099 5.641-3.193 9.802-0.078 4.146-0.172 11.932 7.333 14.052v3.229c0 0-0.047 1.292 0.807 1.557 1.052 0.333 1.651-0.661 2.651-1.729l1.865-2.109c5.135 0.427 9.068-0.557 9.521-0.703 1.042-0.333 6.911-1.083 7.87-8.87 0.984-8.042-0.479-13.109-3.12-15.401h-0.016c-0.797-0.734-4-3.068-11.156-3.094 0 0-0.531-0.036-1.385-0.021zM15.286 2.266c0.729-0.005 1.172 0.026 1.172 0.026 6.057 0.016 8.948 1.839 9.63 2.453 2.224 1.906 3.37 6.474 2.531 13.188-0.797 6.51-5.557 6.922-6.438 7.203-0.375 0.12-3.839 0.974-8.203 0.693 0 0-3.25 3.922-4.266 4.932-0.161 0.177-0.349 0.229-0.469 0.203-0.172-0.042-0.224-0.255-0.214-0.547l0.031-5.359c-6.365-1.76-5.99-8.401-5.922-11.87 0.078-3.469 0.729-6.307 2.667-8.229 2.609-2.359 7.297-2.677 9.479-2.693zM15.766 5.734c-0.219-0.005-0.401 0.177-0.401 0.396 0 0.224 0.182 0.401 0.401 0.401 2.005-0.036 3.938 0.724 5.375 2.12 1.453 1.411 2.161 3.307 2.188 5.786 0 0.219 0.177 0.401 0.401 0.401v-0.016c0.219 0 0.401-0.177 0.401-0.396 0.099-2.359-0.776-4.651-2.417-6.349-1.583-1.547-3.589-2.344-5.948-2.344zM10.495 6.651c-0.281-0.042-0.573 0.016-0.818 0.161h-0.021c-0.542 0.318-1.047 0.719-1.526 1.255-0.365 0.422-0.563 0.849-0.615 1.26-0.031 0.245-0.010 0.49 0.063 0.724l0.026 0.016c0.411 1.208 0.948 2.37 1.604 3.464 0.844 1.536 1.885 2.958 3.094 4.229l0.036 0.052 0.057 0.042 0.036 0.042 0.042 0.036c1.276 1.214 2.698 2.255 4.24 3.109 1.76 0.958 2.828 1.411 3.469 1.599v0.010c0.188 0.057 0.359 0.083 0.531 0.083 0.547-0.042 1.063-0.26 1.469-0.63 0.521-0.469 0.932-0.984 1.24-1.531v-0.010c0.307-0.578 0.203-1.125-0.24-1.495-0.885-0.776-1.849-1.464-2.865-2.057-0.682-0.37-1.375-0.146-1.656 0.229l-0.599 0.755c-0.307 0.375-0.865 0.323-0.865 0.323l-0.016 0.010c-4.161-1.063-5.271-5.276-5.271-5.276s-0.052-0.573 0.333-0.865l0.75-0.604c0.359-0.292 0.609-0.984 0.224-1.667-0.589-1.021-1.276-1.979-2.052-2.865-0.167-0.208-0.406-0.349-0.672-0.401zM16.458 7.839c-0.531 0-0.531 0.802 0.005 0.802 1.333 0.021 2.604 0.573 3.531 1.531 0.844 0.932 1.281 2.172 1.198 3.427 0.005 0.219 0.182 0.396 0.401 0.396l0.016 0.021c0.219 0 0.401-0.182 0.401-0.401 0.036-1.589-0.458-2.922-1.427-3.99-0.974-1.068-2.333-1.667-4.068-1.786-0.021 0-0.036 0-0.057 0zM17.115 9.995c-0.547-0.016-0.568 0.802-0.026 0.818 1.318 0.068 1.958 0.734 2.042 2.104 0.005 0.219 0.182 0.391 0.396 0.391h0.016c0.224-0.010 0.401-0.203 0.385-0.427-0.094-1.786-1.068-2.792-2.797-2.885-0.005 0-0.010 0-0.016 0z"></path>
</symbol>
</defs>
</svg>
